# xmcd CD database file
#
# Track frame offsets:
#	150
#	24144
#	79432
#	111787
#	142390
#	171422
#	203980
#	230082
#	268017
#
# Disc length: 3904 seconds
#
# Revision: 9
# Processed by: cddbd v1.5.2PL0 Copyright (c) Steve Scherf et al.
# Submitted via: CDex 1.51
#
DISCID=850f3e09
DTITLE=Luther Allison - Live In Chicago (Disc-2)
DYEAR=1999
DGENRE=Blues
TTITLE0=Party Time
TTITLE1=All The King's Horses
TTITLE2=What Have I Done Wrong?
TTITLE3=Walking Papers
TTITLE4=Think With Your Heart
TTITLE5=What's Going On In My Home?
TTITLE6=Will It Ever Change?
TTITLE7=You're Gonna Make Me Cry
TTITLE8=Everything's Gonna Be All Right
EXTD=YEAR: 1999
EXTT0=
EXTT1=
EXTT2=
EXTT3=
EXTT4=
EXTT5=
EXTT6=
EXTT7=
EXTT8=
PLAYORDER=
